# xmcd CD database file
#
# Track frame offsets:
#	150
#	13295
#	28727
#	43414
#	52297
#	69035
#	87275
#	101370
#	115005
#	128715
#	143307
#	156090
#	171200
#	186422
#
# Disc length: 2694 seconds
#
# Revision: 0
# Processed by: cddbd v1.5.1PL0 Copyright (c) Steve Scherf et al.
# Submitted via: CDex 1.50beta9
#
DISCID=bb0a840e
DTITLE=Liane - April in Paris
DYEAR=1962
DGENRE=Jazz
TTITLE0=Les amants de Paris
TTITLE1=Fascination
TTITLE2=J'ai deus amours
TTITLE3=Oui oui oui oui
TTITLE4=Je suis seul ce soir
TTITLE5=Petite Fleur
TTITLE6=Lullaby of Birdland
TTITLE7=Midnight in Moscow
TTITLE8=Non, je ne regrette rein
TTITLE9=Mon coeur est un violin
TTITLE10=Le Mur
TTITLE11=Vous qui passez sans me voir
TTITLE12=Comme au premier jour
TTITLE13=April in Paris
EXTD=YEAR: 1962
EXTT0=
EXTT1=
EXTT2=
EXTT3=
EXTT4=
EXTT5=
EXTT6=
EXTT7=
EXTT8=
EXTT9=
EXTT10=
EXTT11=
EXTT12=
EXTT13=
PLAYORDER=
